# xmcd
#
# Track frame offsets:
#	150
#	17693
#	33763
#	48483
#	62570
#	78205
#	95748
#	115585
#	128130
#	142525
#	161553
#	177233
#
# Disc length: 2560 seconds
#
# Revision: 2
# Processed by: cddbd v1.5.2PL0 Copyright (c) Steve Scherf et al.
# Submitted via: EasyCDDAExtractor 16.0.1.1
#
DISCID=8a09fe0c
DTITLE=Larry Dean - Outside Chance
DYEAR=1900
DGENRE=country
TTITLE0="It All Started" 30 Years Ago
TTITLE1=The Best Of Me
TTITLE2=Good Looki' Liar
TTITLE3=Outside Chance
TTITLE4=Let's Pretend "It's The Real Thing Tonight"
TTITLE5=Sure Is Hard
TTITLE6=Old Time Cowboy Movies
TTITLE7=There Stands The Glass
TTITLE8=Tramp
TTITLE9=Whispering Winds
TTITLE10=I Thought All The Good Ones Got Away
TTITLE11=Someone Like You
EXTD=
EXTT0=
EXTT1=
EXTT2=
EXTT3=
EXTT4=
EXTT5=
EXTT6=
EXTT7=
EXTT8=
EXTT9=
EXTT10=
EXTT11=
PLAYORDER=
